<?xml version="1.0" encoding="iso-8859-1"?>
<!-- Uploaded to: SVG Repo, www.svgrepo.com, Generator: SVG Repo Mixer Tools -->
<svg fill="#000000" height="800px" width="800px" version="1.1" id="Layer_1" xmlns="http://www.w3.org/2000/svg" xmlns:xlink="http://www.w3.org/1999/xlink" 
	 viewBox="0 0 512 512" xml:space="preserve">
<g transform="translate(1 1)">
	<g>
		<g>
			<path d="M152.6,272.067H84.333c-5.12,0-8.533,3.413-8.533,8.533v42.667c0,5.12,3.413,8.533,8.533,8.533H152.6
				c5.12,0,8.533-3.413,8.533-8.533V280.6C161.133,275.48,157.72,272.067,152.6,272.067z M144.067,314.733h-51.2v-25.6h51.2V314.733
				z"/>
			<path d="M425.667,272.067H357.4c-5.12,0-8.533,3.413-8.533,8.533v42.667c0,5.12,3.413,8.533,8.533,8.533h68.267
				c5.12,0,8.533-3.413,8.533-8.533V280.6C434.2,275.48,430.787,272.067,425.667,272.067z M417.133,314.733h-51.2v-25.6h51.2
				V314.733z"/>
			<path d="M220.867,289.133h68.267c5.12,0,8.533-3.413,8.533-8.533s-3.413-8.533-8.533-8.533h-68.267
				c-5.12,0-8.533,3.413-8.533,8.533S215.747,289.133,220.867,289.133z"/>
			<path d="M314.733,306.2H195.267c-5.12,0-8.533,3.413-8.533,8.533s3.413,8.533,8.533,8.533h119.467
				c5.12,0,8.533-3.413,8.533-8.533S319.853,306.2,314.733,306.2z"/>
			<path d="M476.013,152.6h19.627c8.533,0,15.36-6.827,15.36-16.213v-53.76c0-8.533-6.827-15.36-15.36-15.36h-19.627
				c-8.533,0-15.36,6.827-15.36,15.36V101.4h-22.178l-13.662-50.347c-5.973-20.48-24.747-34.987-46.08-34.987H131.267
				c-21.333,0-40.107,14.507-46.08,34.987L71.525,101.4H50.2V82.627c0-8.533-6.827-15.36-16.213-15.36H14.36
				C5.827,67.267-1,74.093-1,82.627v54.613c0,8.533,6.827,15.36,15.36,15.36h20.48c8.533,0,15.36-6.827,15.36-16.213v-17.92h16.694
				l-24.69,90.987l-21.87,42.987c-2.56,5.973-4.267,12.8-4.267,19.627v95.243C5.963,370.7-1,380.043-1,391.533V408.6
				c0,14.507,11.093,25.6,25.6,25.6h17.067v25.6c0,18.773,15.36,34.133,34.133,34.133h34.133c18.773,0,34.133-15.36,34.133-34.133
				v-25.6H357.4v25.6c0,18.773,15.36,34.133,34.133,34.133h34.133c18.773,0,34.133-15.36,34.133-34.133v-25.6h25.6
				c14.507,0,25.6-11.093,25.6-25.6v-17.067c0-11.491-6.963-20.833-17.067-24.224v-95.243c0-6.827-1.707-13.653-4.267-19.627
				l-21.87-42.987l-24.69-90.987h17.547v18.773C460.653,145.773,467.48,152.6,476.013,152.6z M33.133,135.533H16.067v-51.2h17.067
				V135.533z M127,459.8c0,9.387-7.68,17.067-17.067,17.067H75.8c-9.387,0-17.067-7.68-17.067-17.067v-25.6H127V459.8z
				 M442.733,459.8c0,9.387-7.68,17.067-17.067,17.067h-34.133c-9.387,0-17.067-7.68-17.067-17.067v-25.6h68.267V459.8z
				 M493.933,408.6c0,5.12-3.413,8.533-8.533,8.533h-25.6H357.4H144.067h-102.4H24.6c-5.12,0-8.533-3.413-8.533-8.533v-17.067
				c0-5.12,3.413-8.533,8.533-8.533h460.8c5.12,0,8.533,3.413,8.533,8.533V408.6z M476.867,272.067v93.867H33.133v-93.867
				c0-4.267,0.853-8.533,2.56-11.947l19.627-39.253h399.36l19.627,39.253C476.013,264.387,476.867,267.8,476.867,272.067z
				 M292.547,203.8l18.166-18.166c1.239-0.689,2.232-1.681,2.92-2.92l41.206-41.206c3.413-3.413,3.413-8.533,0-11.947
				s-8.533-3.413-11.947,0l-28.16,28.16v-13.653c0-5.12-3.413-8.533-8.533-8.533s-8.533,3.413-8.533,8.533v30.72L268.653,203.8
				H173.08l18.166-18.166c1.239-0.689,2.232-1.681,2.921-2.921l41.206-41.206c3.413-3.413,3.413-8.533,0-11.947
				s-8.533-3.413-11.947,0l-28.16,28.16v-13.653c0-5.12-3.413-8.533-8.533-8.533s-8.533,3.413-8.533,8.533v30.72L149.187,203.8
				H61.293L101.4,55.32c4.267-12.8,16.213-22.187,29.867-22.187h247.467c13.653,0,25.6,9.387,29.867,22.187l40.107,148.48H292.547z
				 M476.867,84.333h17.067v51.2h-17.067V84.333z"/>
		</g>
	</g>
</g>
</svg>