<!DOCTYPE svg PUBLIC "-//W3C//DTD SVG 1.1//EN" "http://www.w3.org/Graphics/SVG/1.1/DTD/svg11.dtd">
<!-- Uploaded to: SVG Repo, www.svgrepo.com, Transformed by: SVG Repo Mixer Tools -->
<svg fill="#ffff" height="800px" width="800px" version="1.1" id="Layer_1" xmlns="http://www.w3.org/2000/svg" xmlns:xlink="http://www.w3.org/1999/xlink" viewBox="0 0 512 512" xml:space="preserve" stroke="#ffff">
<g id="SVGRepo_bgCarrier" stroke-width="0"/>
<g id="SVGRepo_tracerCarrier" stroke-linecap="round" stroke-linejoin="round"/>
<g id="SVGRepo_iconCarrier"> <g transform="translate(1 1)"> <g> <g> <path d="M379.16,289.987c-32.427,0-63.147,12.8-83.627,36.693c-3.413,3.413-2.56,8.533,0.853,11.947 c3.413,3.413,8.533,2.56,11.947-0.853C325.4,317.293,351,306.2,378.307,306.2c52.053,0,93.867,41.813,93.867,93.867 c0,52.053-41.813,93.867-93.867,93.867c-42.463,0-79.831-28.994-91.449-68.267h40.249V408.6h-50.179 c-0.916-0.161-1.84-0.178-2.728,0h-15.36v68.267h17.067v-30.611C293.778,484.327,333.771,511,378.307,511 c61.44,0,111.787-48.64,111.787-110.08S440.6,289.987,379.16,289.987z"/> <path d="M71.107,50.2c-9.387,0-17.067,7.68-17.067,17.067V459.8c0,9.387,7.68,17.067,17.067,17.067H233.24 c5.12,0,8.533-3.413,8.533-8.533s-3.413-8.533-8.533-8.533H71.107V67.267h85.333c0,9.387,7.68,17.067,17.067,17.067h119.467 c9.387,0,17.067-7.68,17.067-17.067h85.333v196.267c0,5.12,3.413,8.533,8.533,8.533c5.12,0,8.533-3.413,8.533-8.533V67.267 c0-9.387-7.68-17.067-17.067-17.067H310.04V33.133h110.933c5.12,0,8.533,3.413,8.533,8.533v221.867 c0,5.12,3.413,8.533,8.533,8.533s8.533-3.413,8.533-8.533V41.667c0-14.507-11.093-25.6-25.6-25.6H310.04 C310.04,6.68,302.36-1,292.973-1H173.507c-9.387,0-17.067,7.68-17.067,17.067H45.507c-14.507,0-25.6,11.093-25.6,25.6V485.4 c0,14.507,11.093,25.6,25.6,25.6H233.24c5.12,0,8.533-3.413,8.533-8.533s-3.413-8.533-8.533-8.533H45.507 c-5.12,0-8.533-3.413-8.533-8.533V41.667c0-5.12,3.413-8.533,8.533-8.533H156.44V50.2H71.107z M173.507,16.067h119.467V24.6 v34.133v8.533H173.507v-8.533V24.6V16.067z"/> <path d="M330.264,177.347l-33.024-46.08c-5.12-7.68-13.653-11.947-23.04-11.947h-36.925c-1.169-0.55-2.525-0.853-4.035-0.853 s-2.865,0.304-4.035,0.853H192.28c-9.387,0-17.92,4.267-23.04,11.947l-33.024,46.08h-17.323c-12.8,0-22.187,10.24-22.187,22.187 v33.28c0,12.8,9.387,22.187,22.187,22.187h13.034c3.814,14.679,17.216,25.6,33.046,25.6c15.829,0,29.232-10.921,33.046-25.6 h70.442c3.814,14.679,17.216,25.6,33.046,25.6c15.829,0,29.232-10.921,33.046-25.6h13.034c12.8,0,22.187-9.387,23.04-22.187 v-33.28c0-12.8-10.24-22.187-22.187-22.187H330.264z M282.733,139.8l26.7,37.547h-67.66v-41.813h31.573 C277.613,135.533,281.027,137.24,282.733,139.8z M182.04,139.8c2.56-2.56,5.973-4.267,9.387-4.267h33.28v41.813h-68.532 L182.04,139.8z M164.973,263.533c-9.387,0-17.067-7.68-17.067-17.067s7.68-17.067,17.067-17.067 c9.387,0,17.067,7.68,17.067,17.067S174.36,263.533,164.973,263.533z M301.507,263.533c-9.387,0-17.067-7.68-17.067-17.067 s7.68-17.067,17.067-17.067s17.067,7.68,17.067,17.067S310.893,263.533,301.507,263.533z M353.56,199.533v33.28 c0,2.56-2.56,5.12-5.12,5.12h-13.653c-4.267-14.507-15.36-25.6-31.573-25.6c-0.311,0-0.62,0.012-0.929,0.02 c-0.259-0.006-0.517-0.02-0.778-0.02c-15.83,0-29.232,10.921-33.046,25.6h-69.354c-4.267-14.507-17.067-25.6-33.28-25.6 c-0.156,0-0.309,0.008-0.464,0.01c-0.13-0.001-0.258-0.01-0.389-0.01c-15.83,0-29.232,10.921-33.046,25.6h-13.034 c-2.56,0-5.12-2.56-5.12-5.12v-33.28c0-2.56,2.56-5.12,5.12-5.12h16.642c1.132,0.538,2.405,0.853,3.838,0.853h187.733 c1.433,0,2.706-0.315,3.838-0.853h17.495C351,194.413,353.56,196.973,353.56,199.533z"/> <path d="M233.24,323.267h-128c-5.12,0-8.533,3.413-8.533,8.533c0,5.12,3.413,8.533,8.533,8.533h128 c5.12,0,8.533-3.413,8.533-8.533C241.773,326.68,238.36,323.267,233.24,323.267z"/> <path d="M233.24,365.933h-128c-5.12,0-8.533,3.413-8.533,8.533S100.12,383,105.24,383h128c5.12,0,8.533-3.413,8.533-8.533 S238.36,365.933,233.24,365.933z"/> <path d="M233.24,408.6h-128c-5.12,0-8.533,3.413-8.533,8.533s3.413,8.533,8.533,8.533h128c5.12,0,8.533-3.413,8.533-8.533 S238.36,408.6,233.24,408.6z"/> </g> </g> </g> </g>
</svg>